<svg width="48" height="49" viewBox="0 0 48 49" fill="none" xmlns="http://www.w3.org/2000/svg">
<path fill-rule="evenodd" clip-rule="evenodd" d="M20.7524 3.66115C25.6339 -1.22038 33.5485 -1.22038 38.4299 3.66115C43.3116 8.54272 43.3116 16.4573 38.4299 21.3388L23.9091 35.8597C20.7709 38.9979 15.683 38.9979 12.5449 35.8597C9.40672 32.7217 9.40672 27.6337 12.5449 24.4956L21.3837 15.6567C22.4298 14.6107 24.1257 14.6107 25.1718 15.6567C26.2178 16.7028 26.2178 18.3988 25.1718 19.4448L16.3329 28.2837C15.2869 29.3297 15.2869 31.0257 16.3329 32.0717C17.379 33.1178 19.075 33.1178 20.121 32.0717L34.642 17.5508C37.4313 14.7613 37.4313 10.2387 34.642 7.44926C31.8525 4.65979 27.3299 4.65979 24.5404 7.44926L8.75679 23.2329C4.22393 27.7658 4.22393 35.115 8.75679 39.6479C13.2897 44.1808 20.6389 44.1808 25.1718 39.6479L42.8495 21.9702C43.8956 20.9242 45.5916 20.9242 46.6374 21.9702C47.6834 23.0162 47.6834 24.7122 46.6374 25.7583L28.9599 43.4358C22.3349 50.0608 11.5937 50.0608 4.96872 43.4358C-1.65624 36.8111 -1.65624 26.0698 4.96872 19.4448L20.7524 3.66115Z" fill="url(#paint0_linear_120_60)"/>
<defs>
<linearGradient id="paint0_linear_120_60" x1="23.711" y1="0" x2="23.711" y2="48.4045" gradientUnits="userSpaceOnUse">
<stop stop-color="#14DBEB"/>
<stop offset="1" stop-color="#0C00FF"/>
</linearGradient>
</defs>
</svg>
