<svg width="51" height="50" viewBox="0 0 51 50" fill="none" xmlns="http://www.w3.org/2000/svg">
<path fill-rule="evenodd" clip-rule="evenodd" d="M25.072 0C38.9193 0 50.1441 11.4748 50.1441 25.6323C50.1441 36.9548 42.9685 46.5599 33.0123 49.9524C31.7412 50.2049 31.2899 49.4044 31.2899 48.7219C31.2899 47.8769 31.32 45.117 31.32 41.687C31.32 39.297 30.5177 37.7371 29.6176 36.9421C35.2011 36.3071 41.068 34.1394 41.068 24.2944C41.068 21.4944 40.0952 19.2096 38.4856 17.4146C38.7463 16.7671 39.6063 14.1599 38.2399 10.6299C38.2399 10.6299 36.1388 9.94306 31.3526 13.2581C29.3493 12.6906 27.2032 12.405 25.072 12.395C22.9409 12.405 20.7973 12.6906 18.7965 13.2581C14.0052 9.94306 11.8992 10.6299 11.8992 10.6299C10.5378 14.1599 11.3978 16.7671 11.656 17.4146C10.0539 19.2096 9.07358 21.4944 9.07358 24.2944C9.07358 34.1144 14.9279 36.3154 20.4964 36.9629C19.7793 37.6029 19.13 38.7319 18.9043 40.3894C17.4752 41.0444 13.8448 42.178 11.6083 38.2605C11.6083 38.2605 10.282 35.7977 7.76481 35.6177C7.76481 35.6177 5.32028 35.5853 7.59432 37.1753C7.59432 37.1753 9.23654 37.9628 10.3773 40.9253C10.3773 40.9253 11.8491 45.5002 18.8241 43.9502C18.8366 46.0927 18.8592 48.1119 18.8592 48.7219C18.8592 49.3994 18.3979 50.1923 17.1468 49.9548C7.18313 46.5673 0 36.9573 0 25.6323C0 11.4748 11.2273 0 25.072 0Z" fill="url(#paint0_linear_120_45)"/>
<defs>
<linearGradient id="paint0_linear_120_45" x1="25.072" y1="0" x2="25.072" y2="50.0001" gradientUnits="userSpaceOnUse">
<stop stop-color="#14DBEB"/>
<stop offset="1" stop-color="#0C00FF"/>
</linearGradient>
</defs>
</svg>
